<svg width="24" height="25" viewBox="0 0 24 25" fill="none" xmlns="http://www.w3.org/2000/svg" style="width: 24px; height: 24px;"><path d="M0.3042 12.1927L0.304218 12.1926L0.302762 12.1915C0.226593 12.1333 0.165224 12.0595 0.123059 11.9757C0.0809073 11.8919 0.058987 11.8002 0.0588235 11.7073C0.0588371 8.66114 1.31635 5.73929 3.55551 3.58463C5.79475 1.42988 8.83229 0.21898 12 0.21898C15.1677 0.21898 18.2052 1.42988 20.4445 3.58463C22.6837 5.7393 23.9412 8.66117 23.9412 11.7073C23.9412 11.8033 23.918 11.898 23.8733 11.984C23.8286 12.07 23.7636 12.145 23.6832 12.203L12.6715 20.1502L12.6471 20.1678V20.1979V22.8017V22.8605H12.7059H13.8824C14.0547 22.8605 14.2195 22.9264 14.3407 23.043C14.4618 23.1595 14.5294 23.3171 14.5294 23.4809C14.5294 23.6447 14.4618 23.8023 14.3407 23.9188C14.2195 24.0354 14.0547 24.1013 13.8824 24.1013H10.1176C9.94532 24.1013 9.78049 24.0354 9.6593 23.9188C9.53819 23.8023 9.47059 23.6447 9.47059 23.4809C9.47059 23.3171 9.53819 23.1595 9.6593 23.043C9.78049 22.9264 9.94532 22.8605 10.1176 22.8605H11.2941H11.3529V22.8017V20.1979V20.1678L11.3285 20.1502L0.318167 12.204L0.3042 12.1927ZM22.5647 11.0869H22.6279L22.6234 11.0239C22.4635 8.77401 21.5386 6.63759 19.992 4.94418C18.4454 3.25082 16.3631 2.09456 14.0664 1.65333L13.8934 1.62011L14.0117 1.7506C15.4066 3.28979 17.1887 6.18614 17.3412 11.0299L17.343 11.0869H17.4H22.5647ZM12.037 1.63478L12 1.60494L11.9631 1.63474C11.2518 2.20831 10.6359 2.88348 10.1371 3.63676C9.1924 5.01979 8.07926 7.40549 7.95415 11.026L7.95205 11.0869H8.01294H15.9871H16.048L16.0458 11.026C15.9692 8.86976 15.4998 6.03608 13.8629 3.63675C13.3634 2.88397 12.7477 2.20891 12.037 1.63478ZM15.5568 12.416L15.6078 12.3277H15.5059H8.49412H8.39224L8.44317 12.416L11.9491 18.4896L12 18.5778L12.0509 18.4896L15.5568 12.416ZM6.92977 12.3572L6.91279 12.3277H6.87882H2.82353H2.64151L2.7891 12.4343L9.74087 17.4516L9.82624 17.3745L6.92977 12.3572ZM17.1212 12.3277H17.0872L17.0702 12.3572L14.1738 17.3745L14.2591 17.4516L21.2109 12.4343L21.3585 12.3277H21.1765H17.1212ZM9.98829 1.7506L10.1066 1.62011L9.93361 1.65333C7.63694 2.09456 5.55458 3.25082 4.00799 4.94418C2.46136 6.63759 1.53652 8.77401 1.37662 11.0239L1.37214 11.0869H1.43529H6.6H6.657L6.65879 11.0299C6.81126 6.18614 8.59336 3.28979 9.98829 1.7506Z" fill="#38B2AC" stroke="#38B2AC" stroke-width="0.117647"></path></svg>