<svg width="25" height="25" viewBox="0 0 25 25" fill="none" xmlns="http://www.w3.org/2000/svg" style="width: 24px; height: 24px;"><g clip-path="url(#clip0_989_20505)"><path d="M9.6564 22.6602H7.03139C4.85676 22.6602 3.09387 20.8973 3.09387 18.7227V5.59766C3.09387 3.42304 4.85676 1.66016 7.03139 1.66016H16.2189C18.3936 1.66016 20.1564 3.42304 20.1564 5.59766V8.87891M15.5627 6.91016H7.03139M11.6252 10.8477H7.03139M9.6564 14.7852H7.03139" stroke="#38B2AC" stroke-width="1.5" stroke-linecap="round" stroke-linejoin="round"></path><path d="M18.4103 15.5038L16.1067 17.8074L15.3215 17.0222M16.7141 11.734C14.0307 11.734 11.8553 13.9093 11.8553 16.5927C11.8553 19.2761 14.0307 21.4514 16.7141 21.4514C19.3975 21.4514 21.5728 19.2761 21.5728 16.5927C21.5728 13.9093 19.3975 11.734 16.7141 11.734Z" stroke="#38B2AC" stroke-width="1.5" stroke-linecap="round" stroke-linejoin="round"></path></g><defs><clipPath id="clip0_989_20505"><rect width="24" height="24" fill="white" transform="translate(0.333313 0.160156)"></rect></clipPath></defs></svg>