<svg width="25" height="25" viewBox="0 0 25 25" fill="none" xmlns="http://www.w3.org/2000/svg" style="width: 24px; height: 24px;"><path d="M20.6666 12.1602V22.1602H4.66663V12.1602" stroke="#38B2AC" stroke-width="1.5" stroke-linecap="round" stroke-linejoin="round"></path><path d="M22.6666 7.16016H2.66663V12.1602H22.6666V7.16016Z" stroke="#38B2AC" stroke-width="1.5" stroke-linecap="round" stroke-linejoin="round"></path><path d="M12.6666 22.1602V7.16016" stroke="#38B2AC" stroke-width="1.5" stroke-linecap="round" stroke-linejoin="round"></path><path d="M12.6666 7.16016H8.16663C7.50358 7.16016 6.8677 6.89676 6.39886 6.42792C5.93002 5.95908 5.66663 5.3232 5.66663 4.66016C5.66663 3.99712 5.93002 3.36123 6.39886 2.89239C6.8677 2.42355 7.50358 2.16016 8.16663 2.16016C11.6666 2.16016 12.6666 7.16016 12.6666 7.16016Z" stroke="#38B2AC" stroke-width="1.5" stroke-linecap="round" stroke-linejoin="round"></path><path d="M12.6666 7.16016H17.1666C17.8297 7.16016 18.4656 6.89676 18.9344 6.42792C19.4032 5.95908 19.6666 5.3232 19.6666 4.66016C19.6666 3.99712 19.4032 3.36123 18.9344 2.89239C18.4656 2.42355 17.8297 2.16016 17.1666 2.16016C13.6666 2.16016 12.6666 7.16016 12.6666 7.16016Z" stroke="#38B2AC" stroke-width="1.5" stroke-linecap="round" stroke-linejoin="round"></path></svg>