<svg id="Layer_2" xmlns="http://www.w3.org/2000/svg" xmlns:xlink="http://www.w3.org/1999/xlink" viewBox="0 0 1396.48 268.62" style="height: 28px;"><defs><style>.cls-1{fill:#fff;}.cls-2{fill:#00a59b;}.cls-3{fill:url(#linear-gradient);}</style><linearGradient id="linear-gradient" x1="0" y1="1038.28" x2="227.97" y2="1038.28" gradientTransform="translate(0 1172.59) scale(1 -1)" gradientUnits="userSpaceOnUse"><stop offset="0" stop-color="#00d0d1"></stop><stop offset="1" stop-color="#2affc0"></stop></linearGradient></defs><g id="logo-dark"><g><path class="cls-3" d="M21.32,225.58c8.59,10.22,18.16,16.43,25.06,20.07,3.18,1.67,7.03-.5,7.29-4.08,.5-6.6,1.21-12.05,2.55-17.55,2.79-10.79,3.61-14.22,10.16-26.01,5.78-10,11.75-16.95,16.51-22.45,4.43-5.12,11.17-12.82,21.06-20.83,5.18-3.86,17.72-14.27,23.76-19.2,1.36-1.04,4.33-3.35,6.71-5.43,7.51-6.38,20.62-20.56,26.62-28.56,8.47-10.78,10.05-15.39,11.5-15.39,2.74,.87,1.15,6.6-10.76,27.19-3.39,5.8-8.87,14.15-14.38,20.79-8.7,10.57-26.23,25.69-34.63,32.91-15.09,13.5-25.08,27.16-31.7,38.01-4.43,7.42-6.44,12.29-6.95,13.56-.52,1.29-2.74,6.9-4.13,13.36-9.48,40.8,3.12,42.38,50.32,29.49,16.07-4.08,29.03-8.52,37.78-11.77,54.65-28.92,77.49-97.02,67.64-183.13,.03-2.08-3.84-42.31-9.53-62.87-1.04-3.73-5.7-4.95-8.41-2.19-16.67,16.89-32.39,27.3-44.09,33.82-30.56,17.01-45.43,14.02-95.92,37.97C27.84,91.37-3.24,123.35,.27,173.16c.41,11.44,7.37,36.96,21.05,52.41Z"></path><path class="cls-2" d="M172.88,182.48h0s16.01-29.27,16.01-29.27h0c1.07-1.97,3.9-1.97,4.97,0h0s16.01,29.27,16.01,29.27h0c1.19,2.17,2.97,3.96,5.14,5.15h0s29.27,16.01,29.27,16.01h0c1.96,1.07,1.96,3.9,0,4.97h0s-29.27,16.01-29.27,16.01h0c-2.17,1.19-3.96,2.98-5.14,5.15h0s-16.01,29.27-16.01,29.27h0c-1.07,1.97-3.9,1.97-4.97,0h0s-16.01-29.27-16.01-29.27h0c-1.19-2.17-2.97-3.96-5.15-5.15h0s-29.27-16.01-29.27-16.01h0c-1.96-1.07-1.96-3.9,0-4.97h0s29.27-16.01,29.27-16.01h0c2.17-1.19,3.96-2.98,5.15-5.15Z"></path><path class="cls-1" d="M191.37,265.57c-2.8,0-5.38-1.48-6.79-3.87l-.14-.24-16.04-29.34c-.73-1.29-1.79-2.35-3.09-3.06l-29.27-16.01c-2.54-1.39-4.11-4.04-4.11-6.93,0-2.8,1.48-5.37,3.87-6.79l.24-.14,29.27-16.01c1.3-.71,2.37-1.77,3.09-3.06l16.18-29.59c1.42-2.39,4-3.87,6.79-3.87s5.55,1.58,6.93,4.11l16.05,29.35c.72,1.29,1.79,2.34,3.09,3.06l29.51,16.14c2.39,1.42,3.87,3.99,3.87,6.79,0,2.89-1.57,5.55-4.11,6.93l-29.27,16.01c-1.3,.71-2.37,1.77-3.1,3.06l-.04,.07-16,29.27c-1.38,2.54-4.04,4.11-6.93,4.11Zm1.96-8.97h0s0,0,0,0Zm-15.79-28.87l12.07,22.08c.76,1.39,2.75,1.39,3.51,0l12.29-22.48c1.62-2.95,4.02-5.38,6.95-7.04l.21-.12,22.48-12.29c1.39-.76,1.39-2.75,0-3.51l-22.69-12.41c-2.93-1.66-5.33-4.08-6.95-7.04l-12.29-22.48c-.76-1.39-2.75-1.39-3.51,0l-12.29,22.48c-1.53,2.8-3.76,5.12-6.48,6.76l-.04,.04-23.12,12.64c-1.39,.76-1.39,2.75,0,3.51l23.16,12.68c2.72,1.64,4.94,3.97,6.48,6.76l.22,.41Zm-36.65-19.65h0s0,0,0,0Z"></path></g><path class="cls-1" d="M362.25,138.04l15.75,7.18c15.29,6.95,25.72,16.22,25.72,33.59,0,19.92-15.75,34.06-40.54,34.06s-38-14.37-41.7-31.05l14.6-7.88c2.32,11.58,12.51,22.71,28.27,22.71,12.28,0,20.85-6.26,20.85-17.84,0-8.34-5.79-13.9-18.07-19.46l-14.6-6.72c-15.29-6.95-25.95-15.76-25.95-33.6s15.52-32.44,37.07-32.44,34.52,11.82,40.08,26.88l-13.9,7.65c-3.71-10.66-12.74-18.77-25.72-18.77-11.58,0-19.46,6.95-19.46,16.45,0,8.8,5.56,13.67,17.61,19.23Z"></path><path class="cls-1" d="M495.93,212.87c-21.32,0-39.15-9.27-45.64-23.17h-.7c.46,3.01,.7,6.49,.7,12.51v60.24h-18.53V90.31h17.38v8.11c0,5.56-.23,9.04-.7,12.51h.7c7.88-13.44,25.02-24.33,47.73-24.33,35.45,0,60.7,26.64,60.7,63.02s-25.48,63.25-61.63,63.25Zm-46.34-63.25c0,26.88,18.77,46.57,44.72,46.57s44.25-19.69,44.25-46.57-19-46.57-44.25-46.57-44.72,19.69-44.72,46.57Z"></path><path class="cls-1" d="M639.11,212.87c-36.14,0-62.79-27.11-62.79-63.25s26.64-63.02,62.55-63.02,58.62,27.11,58.62,63.02c0,2.32-.23,6.25-.46,8.11h-101.25c3.24,22.94,20.16,38.46,43.56,38.46,15.99,0,28.5-6.72,37.77-18.3l10.89,11.12c-11.58,15.52-28.5,23.86-48.89,23.86Zm-43.33-70.9h83.18c-1.39-22.47-17.38-38.92-40.31-38.92s-39.85,15.76-42.86,38.92Z"></path><path class="cls-1" d="M777.66,86.6c23.63,0,40.54,12.05,45.87,25.02h.46c-.23-3.48-.46-6.72-.46-12.74v-8.57h17.38v118.85h-17.38v-10.89c0-5.33,.23-9.27,.46-12.97h-.46c-5.79,15.52-23.4,27.34-46.34,27.57-37.76,0-61.86-27.11-61.86-63.25s25.48-63.02,62.32-63.02Zm45.41,63.02c0-26.88-18.53-46.57-44.72-46.57s-44.25,19.69-44.25,46.57,19,46.57,44.25,46.57,44.72-19.92,44.72-46.57Z"></path><path class="cls-1" d="M930.79,90.31v16.45h-34.75v102.41h-18.54V90.31h53.29Z"></path><path class="cls-1" d="M1112.2,209.16h-18.54v-78.77c0-15.99-11.12-27.34-27.1-27.34s-26.65,11.35-26.65,27.34v78.77h-18.53v-78.77c0-15.99-11.12-27.34-26.88-27.34s-27.11,11.35-27.11,27.34v78.77h-18.53v-78.77c0-25.72,19.46-43.79,45.41-43.79,16.68,0,29.43,7.41,36.61,19.69,7.41-12.28,20.15-19.69,36.37-19.69,26.65,0,44.95,18.07,44.95,43.79v78.77Z"></path><path class="cls-1" d="M1144.87,56.02c0-6.49,5.09-11.58,11.81-11.58s11.82,5.1,11.82,11.58c0,6.95-5.33,12.05-11.82,12.05s-11.81-5.1-11.81-12.05Zm2.55,153.14V90.31h18.53v118.85h-18.53Z"></path><path class="cls-1" d="M1300.56,90.31v118.85h-18.54V106.53h-60.7v102.64h-18.53V90.31h97.77Z"></path><path class="cls-1" d="M1341.34,106.53h-13.67v-16.22h13.67v-31.74h18.53v31.74h36.61v16.22h-36.61v86.19h33.13v16.45h-51.66V106.53Z"></path></g></svg>