<svg width="25" height="25" viewBox="0 0 25 25" fill="none" xmlns="http://www.w3.org/2000/svg" style="width: 24px; height: 24px;"><path d="M11.141 3.3323C11.522 2.30281 12.9781 2.30281 13.359 3.3323L15.2551 8.45644C15.3749 8.78011 15.6301 9.03531 15.9538 9.15508L21.0779 11.0512C22.1074 11.4321 22.1074 12.8882 21.0779 13.2692L15.9538 15.1653C15.6301 15.2851 15.3749 15.5402 15.2551 15.8639L13.359 20.9881C12.9781 22.0176 11.522 22.0176 11.141 20.9881L9.24492 15.8639C9.12515 15.5402 8.86996 15.2851 8.54629 15.1653L3.42215 13.2692C2.39265 12.8882 2.39265 11.4321 3.42215 11.0512L8.54629 9.15508C8.86996 9.03531 9.12515 8.78011 9.24492 8.45644L11.141 3.3323Z" stroke="#38B2AC" stroke-width="1.5" stroke-linejoin="round"></path></svg>